<?xml version="1.0" standalone="no"?>
<!DOCTYPE svg PUBLIC "-//W3C//DTD SVG 20010904//EN"
 "http://www.w3.org/TR/2001/REC-SVG-20010904/DTD/svg10.dtd">
<svg version="1.0" xmlns="http://www.w3.org/2000/svg"
 width="2000.000000pt" height="2000.000000pt" viewBox="0 0 2000.000000 2000.000000"
 preserveAspectRatio="xMidYMid meet">
<metadata>
Created by potrace 1.11, written by Peter Selinger 2001-2013
</metadata>
<g transform="translate(0.000000,2000.000000) scale(0.100000,-0.100000)"
fill="#000000" stroke="none">
<path d="M7625 13314 c0 -2230 -2 -4058 -5 -4062 -3 -4 -75 -30 -160 -59 -85
-28 -335 -113 -555 -188 -220 -75 -515 -175 -655 -222 -140 -47 -403 -136
-585 -198 -181 -62 -458 -155 -615 -208 -157 -53 -492 -166 -745 -252 -253
-86 -480 -163 -505 -170 -25 -7 -133 -44 -240 -80 -267 -92 -1258 -427 -1405
-476 -66 -22 -129 -43 -140 -48 -11 -5 -47 -17 -80 -26 -295 -80 -628 -239
-894 -429 -410 -291 -663 -659 -718 -1045 -9 -63 -10 -288 -1 -333 33 -163
158 -324 350 -451 93 -61 267 -150 373 -191 39 -15 79 -31 90 -36 61 -28 342
-112 550 -164 148 -37 424 -98 495 -110 20 -3 145 -27 221 -41 9 -2 34 -6 55
-9 22 -4 62 -11 89 -16 28 -5 66 -12 85 -15 19 -3 46 -8 60 -10 14 -2 54 -9
90 -14 36 -6 74 -13 85 -15 11 -2 45 -7 75 -12 30 -4 57 -8 60 -9 3 -1 34 -5
70 -10 36 -5 67 -9 70 -10 11 -3 77 -15 110 -20 163 -24 301 -45 460 -71 52
-8 106 -17 120 -19 51 -8 186 -27 210 -31 14 -2 50 -6 80 -9 30 -3 66 -8 80
-10 14 -3 50 -7 80 -10 30 -3 73 -8 95 -10 79 -9 253 -21 440 -31 92 -4 611
-4 700 1 101 5 237 15 300 21 144 13 265 25 286 29 9 2 40 6 70 10 30 3 79 10
109 15 30 5 71 12 90 15 19 3 60 10 90 15 30 5 70 12 88 15 122 20 400 86 672
160 35 9 179 54 225 70 28 9 57 18 65 20 8 2 35 11 59 19 24 9 46 14 50 12 4
-3 6 -208 6 -456 0 -248 2 -454 5 -458 3 -4 21 -12 40 -19 50 -17 756 -245
940 -305 85 -27 164 -53 175 -57 11 -5 49 -18 85 -29 106 -33 780 -251 840
-272 30 -10 204 -66 385 -125 182 -59 402 -131 490 -160 l160 -52 5 25 5 26
12 -27 c13 -27 13 -27 50 -11 21 8 101 37 178 64 77 26 185 64 240 83 55 19
129 44 165 56 36 13 74 27 85 32 11 5 40 15 65 23 25 8 117 39 205 71 88 31
176 61 195 66 19 6 44 14 55 19 11 5 101 37 200 71 99 33 189 64 200 69 11 5
72 27 135 49 63 22 214 74 335 116 121 42 283 99 360 126 268 93 743 260 965
339 74 27 146 51 160 55 14 4 39 13 55 20 17 7 98 37 180 65 83 29 224 78 315
110 91 32 174 61 185 65 11 4 29 11 40 15 11 5 40 16 65 24 25 8 110 38 190
66 80 28 172 60 205 71 33 11 69 24 80 29 11 5 47 18 80 29 33 11 137 47 230
81 94 33 202 71 240 84 39 13 133 46 210 74 77 27 239 84 360 127 121 42 229
80 240 85 17 8 178 64 850 300 44 16 94 34 110 41 17 7 39 14 50 16 11 2 36 9
55 15 19 7 37 13 40 13 6 2 19 7 185 73 302 119 632 295 805 429 320 247 491
484 538 743 15 79 6 232 -18 325 -39 149 -148 341 -261 462 -117 124 -232 213
-430 336 -187 115 -631 296 -914 373 -93 25 -288 76 -305 79 -8 2 -33 8 -55
13 -33 9 -109 25 -220 48 -11 2 -42 8 -70 14 -86 18 -96 20 -275 50 -162 27
-235 38 -285 45 -11 1 -38 5 -60 8 -22 4 -65 9 -95 12 -30 4 -62 8 -70 10 -13
4 -75 11 -170 19 -22 2 -70 8 -185 22 -16 2 -64 6 -105 9 -41 3 -91 8 -110 10
-19 3 -71 7 -115 10 -44 4 -100 8 -125 10 -324 27 -1068 27 -1350 0 -19 -2
-73 -6 -120 -10 -80 -6 -105 -8 -197 -20 -21 -2 -63 -7 -93 -10 -30 -3 -71 -8
-90 -10 -19 -3 -53 -7 -75 -9 -70 -9 -258 -36 -315 -46 -30 -5 -73 -12 -95
-16 -54 -8 -448 -82 -505 -95 -25 -6 -54 -12 -65 -15 -31 -6 -149 -33 -263
-61 -57 -13 -111 -26 -120 -28 -10 -1 -37 -8 -62 -15 -25 -7 -52 -14 -60 -16
-70 -16 -324 -85 -475 -129 -231 -67 -978 -307 -1040 -334 -16 -8 -115 -41
-120 -41 -1 0 0 1169 1 2598 2 1428 3 2976 4 3439 0 796 1 846 19 903 39 125
138 216 294 269 85 30 129 35 262 34 244 -2 448 -95 553 -253 83 -124 75 164
78 -2860 1 -1482 3 -2709 3 -2725 1 -29 5 -32 54 -43 28 -6 104 -25 167 -42
63 -17 126 -32 140 -35 14 -2 68 -13 120 -24 123 -26 147 -30 195 -37 22 -3
51 -7 64 -9 13 -3 45 -7 70 -11 25 -3 57 -8 71 -10 14 -2 63 -6 110 -9 47 -4
99 -8 115 -11 33 -4 359 -4 415 0 177 15 338 40 465 72 428 110 778 333 1063
679 116 141 279 427 361 633 95 238 186 564 225 802 15 91 36 230 41 275 3 28
8 64 10 82 3 17 7 64 11 105 3 40 7 89 9 108 27 253 26 919 0 1095 -2 17 -7
48 -9 70 -15 119 -49 322 -71 415 -82 350 -221 714 -369 964 -25 43 -46 80
-46 83 0 3 -42 69 -94 147 -325 488 -785 916 -1366 1268 -203 124 -461 259
-670 353 -58 26 -123 55 -145 65 -22 10 -94 39 -160 65 -66 26 -133 53 -150
60 -99 43 -613 213 -835 275 -68 20 -327 89 -485 131 -88 23 -218 57 -290 76
-71 19 -164 43 -205 54 -41 11 -126 33 -189 50 -63 17 -121 32 -130 34 -9 2
-68 18 -131 35 -112 30 -217 58 -457 121 -65 17 -143 37 -173 45 -30 9 -95 26
-145 39 -116 30 -345 91 -460 122 -86 23 -173 46 -565 148 -302 79 -732 194
-807 215 -39 11 -77 20 -85 20 -11 0 -13 -678 -13 -4056z m0 -6327 c1 -507 -1
-573 -15 -574 -8 -1 -134 -42 -280 -92 -243 -83 -1681 -566 -2260 -760 -135
-45 -252 -84 -260 -88 -8 -3 -19 -7 -25 -9 -5 -2 -54 -16 -107 -33 -157 -48
-266 -65 -428 -65 -248 1 -468 64 -615 178 -69 54 -76 60 -111 107 -126 171
-73 351 140 476 81 47 97 53 506 198 218 77 351 125 445 160 55 20 105 38 110
39 6 2 17 6 25 9 8 3 87 31 175 62 88 32 207 74 265 95 58 21 265 95 460 164
195 70 384 138 420 151 36 13 187 67 335 120 149 53 326 117 395 142 69 24
195 69 280 99 85 30 178 63 205 74 136 51 321 118 330 119 7 1 10 -191 10
-572z m8726 257 c148 -21 169 -25 238 -46 68 -21 153 -61 184 -88 35 -29 60
-81 60 -124 0 -112 -130 -235 -390 -365 -176 -89 -204 -100 -798 -303 -192
-66 -501 -172 -685 -235 -184 -63 -425 -145 -535 -183 -497 -170 -631 -216
-950 -325 -187 -64 -430 -147 -540 -185 -417 -142 -651 -222 -980 -335 -187
-64 -358 -123 -380 -130 -40 -13 -702 -240 -783 -268 l-42 -15 2 516 3 515
160 55 c243 82 467 159 825 282 326 112 597 205 700 240 30 10 215 73 410 140
195 67 420 144 500 171 80 27 152 52 160 56 8 3 20 7 25 8 9 3 762 255 1380
463 132 45 251 83 265 85 14 3 45 8 70 12 25 4 54 9 65 11 11 2 40 7 65 10 25
3 52 8 60 9 9 2 43 6 75 10 33 4 71 9 85 11 14 2 70 7 125 10 55 4 102 8 103
9 11 10 444 0 523 -11z"/>
</g>
</svg>
